<svg width="1050" height="241" viewBox="0 0 1050 241" fill="none" xmlns="http://www.w3.org/2000/svg">
<g opacity="0.1">
<path d="M685.008 129.767C691.638 127.801 698.626 128.805 704.031 132.5L777.143 182.488C784.058 187.216 787.301 195.59 785.479 204.011L770.5 273.23C768.678 281.65 762.115 288.616 753.633 291.131L663.947 317.73C657.318 319.696 650.329 318.691 644.925 314.997L571.813 265.008C564.898 260.281 561.654 251.906 563.476 243.486L578.455 174.266C580.278 165.846 586.841 158.881 595.323 156.365L685.008 129.767Z" stroke="white" stroke-width="4"/>
<path d="M849.679 153.426C856.308 151.46 863.297 152.464 868.701 156.159L941.813 206.147C948.728 210.875 951.972 219.249 950.15 227.67L935.17 296.889C933.348 305.31 926.785 312.275 918.303 314.79L828.617 341.389C821.988 343.355 815 342.35 809.595 338.656L736.483 288.667C729.568 283.94 726.325 275.565 728.147 267.145L743.126 197.925C744.948 189.505 751.511 182.54 759.993 180.024L849.679 153.426Z" stroke="white" stroke-width="4"/>
<path d="M717.624 -20.9526C724.253 -22.9186 731.242 -21.9145 736.646 -18.2196L809.758 31.7685C816.673 36.4963 819.917 44.8706 818.095 53.2908L803.116 122.511C801.293 130.931 794.73 137.896 786.248 140.412L696.563 167.01C689.933 168.976 682.945 167.972 677.541 164.277L604.428 114.289C597.514 109.561 594.27 101.187 596.092 92.7664L611.071 23.5467C612.893 15.1265 619.456 8.1611 627.939 5.64553L717.624 -20.9526Z" stroke="white" stroke-width="4"/>
<path d="M882.295 2.70641C888.924 0.740377 895.913 1.74448 901.317 5.43942L974.429 55.4275C981.344 60.1553 984.587 68.5296 982.765 76.9498L967.786 146.17C965.964 154.59 959.401 161.555 950.919 164.071L861.233 190.669C854.604 192.635 847.615 191.631 842.211 187.936L769.099 137.948C762.184 133.22 758.94 124.846 760.763 116.425L775.742 47.2057C777.564 38.7855 784.127 31.8201 792.609 29.3045L882.295 2.70641Z" stroke="white" stroke-width="4"/>
<path d="M1007.58 176.113C1014.21 174.147 1021.2 175.151 1026.6 178.846L1099.72 228.834C1106.63 233.562 1109.88 241.936 1108.05 250.356L1093.07 319.576C1091.25 327.996 1084.69 334.962 1076.21 337.477L986.521 364.075C979.892 366.041 972.903 365.037 967.499 361.342L894.386 311.354C887.472 306.627 884.228 298.252 886.05 289.832L901.029 220.612C902.851 212.192 909.415 205.227 917.897 202.711L1007.58 176.113Z" stroke="white" stroke-width="4"/>
<path d="M1172.25 199.772C1178.88 197.806 1185.87 198.81 1191.27 202.505L1264.39 252.493C1271.3 257.221 1274.55 265.595 1272.72 274.015L1257.74 343.235C1255.92 351.655 1249.36 358.621 1240.88 361.136L1151.19 387.734C1144.56 389.7 1137.57 388.696 1132.17 385.001L1059.06 335.013C1052.14 330.285 1048.9 321.911 1050.72 313.491L1065.7 244.271C1067.52 235.851 1074.09 228.886 1082.57 226.37L1172.25 199.772Z" stroke="white" stroke-width="4"/>
<path d="M1040.2 25.3932C1046.83 23.4272 1053.82 24.4313 1059.22 28.1263L1132.33 78.1144C1139.25 82.8421 1142.49 91.2164 1140.67 99.6367L1125.69 168.856C1123.87 177.277 1117.3 184.242 1108.82 186.758L1019.14 213.356C1012.51 215.322 1005.52 214.318 1000.11 210.623L927.002 160.635C920.087 155.907 916.844 147.532 918.666 139.112L933.645 69.8925C935.467 61.4723 942.03 54.5069 950.512 51.9914L1040.2 25.3932Z" stroke="white" stroke-width="4"/>
<path d="M30.8013 35.7736C37.4306 33.8076 44.4192 34.8117 49.8234 38.5066L122.936 88.4947C129.85 93.2225 133.094 101.597 131.272 110.017L116.293 179.237C114.471 187.657 107.908 194.622 99.4254 197.138L9.73988 223.736C3.11064 225.702 -3.87802 224.698 -9.28221 221.003L-82.3945 171.015C-89.3093 166.287 -92.5529 157.913 -90.7308 149.493L-75.7517 80.2729C-73.9295 71.8527 -67.3664 64.8873 -58.8842 62.3717L30.8013 35.7736Z" stroke="white" stroke-width="4"/>
<path d="M195.472 59.4326C202.101 57.4665 209.09 58.4706 214.494 62.1656L287.606 112.154C294.521 116.881 297.765 125.256 295.943 133.676L280.963 202.896C279.141 211.316 272.578 218.281 264.096 220.797L174.41 247.395C167.781 249.361 160.793 248.357 155.388 244.662L82.276 194.674C75.3613 189.946 72.1176 181.572 73.9398 173.152L88.9189 103.932C90.741 95.5116 97.3042 88.5463 105.786 86.0307L195.472 59.4326Z" stroke="white" stroke-width="4"/>
<path d="M63.417 -114.946C70.0463 -116.912 77.0349 -115.908 82.4391 -112.213L155.551 -62.2249C162.466 -57.4972 165.71 -49.1229 163.888 -40.7026L148.909 28.5171C147.086 36.9373 140.523 43.9027 132.041 46.4183L42.3556 73.0164C35.7264 74.9824 28.7377 73.9783 23.3335 70.2834L-49.7788 20.2953C-56.6935 15.5675 -59.9372 7.1932 -58.115 -1.22703L-43.1359 -70.4468C-41.3138 -78.867 -34.7506 -85.8324 -26.2685 -88.3479L63.417 -114.946Z" stroke="white" stroke-width="4"/>
<path d="M228.088 -91.2871C234.717 -93.2532 241.705 -92.2491 247.11 -88.5541L320.222 -38.566C327.137 -33.8383 330.38 -25.4639 328.558 -17.0437L313.579 52.176C311.757 60.5963 305.194 67.5616 296.712 70.0772L207.026 96.6753C200.397 98.6413 193.408 97.6373 188.004 93.9423L114.892 43.9542C107.977 39.2265 104.733 30.8521 106.555 22.4319L121.535 -46.7878C123.357 -55.2081 129.92 -62.1734 138.402 -64.689L228.088 -91.2871Z" stroke="white" stroke-width="4"/>
<path d="M353.375 82.1194C360.004 80.1534 366.993 81.1575 372.397 84.8524L445.51 134.841C452.424 139.568 455.668 147.943 453.846 156.363L438.867 225.583C437.045 234.003 430.481 240.968 421.999 243.484L332.314 270.082C325.685 272.048 318.696 271.044 313.292 267.349L240.179 217.361C233.265 212.633 230.021 204.259 231.843 195.838L246.822 126.619C248.644 118.198 255.207 111.233 263.69 108.718L353.375 82.1194Z" stroke="white" stroke-width="4"/>
<path d="M518.046 105.778C524.675 103.812 531.664 104.816 537.068 108.511L610.18 158.5C617.095 163.227 620.339 171.602 618.516 180.022L603.537 249.242C601.715 257.662 595.152 264.627 586.67 267.143L496.984 293.741C490.355 295.707 483.366 294.703 477.962 291.008L404.85 241.02C397.935 236.292 394.692 227.918 396.514 219.497L411.493 150.278C413.315 141.857 419.878 134.892 428.36 132.377L518.046 105.778Z" stroke="white" stroke-width="4"/>
<path d="M385.991 -68.6002C392.62 -70.5663 399.609 -69.5622 405.013 -65.8672L478.125 -15.8791C485.04 -11.1514 488.284 -2.77703 486.462 5.64319L471.482 74.8629C469.66 83.2832 463.097 90.2485 454.615 92.7641L364.929 119.362C358.3 121.328 351.312 120.324 345.907 116.629L272.795 66.6411C265.88 61.9134 262.637 53.539 264.459 45.1188L279.438 -24.101C281.26 -32.5212 287.823 -39.4865 296.305 -42.0021L385.991 -68.6002Z" stroke="white" stroke-width="4"/>
<path d="M550.661 -44.9412C557.291 -46.9073 564.279 -45.9032 569.684 -42.2082L642.796 7.77988C649.711 12.5076 652.954 20.882 651.132 29.3022L636.153 98.5219C634.331 106.942 627.768 113.908 619.286 116.423L529.6 143.021C522.971 144.987 515.982 143.983 510.578 140.288L437.466 90.3001C430.551 85.5724 427.307 77.198 429.129 68.7778L444.108 -0.441961C445.931 -8.86218 452.494 -15.8275 460.976 -18.3431L550.661 -44.9412Z" stroke="white" stroke-width="4"/>
</g>
</svg>
